<?xml version="1.0" encoding="UTF-8"?>
<!DOCTYPE svg PUBLIC "-//W3C//DTD SVG 1.1//EN" "http://www.w3.org/Graphics/SVG/1.1/DTD/svg11.dtd">
<svg version="1.2" xmlns="http://www.w3.org/2000/svg" xmlns:xlink="http://www.w3.org/1999/xlink" x="0" y="0" width="584" height="201" viewBox="0 0 584 201">
<style type="text/css"><![CDATA[
text { font:12px Dialog; }
]]></style>
<rect x="-1266" y="-1070" width="3114" height="2342" style="fill:rgb(255,255,255);stroke:none" />
<clipPath id="clip1"><path d="M13,15 L570,15 L570,186 L13,186 Z M205,62 C200.5817261,62 197,65.5817184 197,70 L197,130 C197,134.4182739 200.5817261,138 205,138 L379,138 C383.4182739,138 387,134.4182739 387,130 L387,70 C387,65.5817184 383.4182739,62 379,62 Z" /></clipPath>
<path d="M379.3999939,62 C390.6444397,47.3333321 407.5111084,40 430,40" style="fill:none;stroke:rgb(85,142,213)" clip-path="url(#clip1)" />
<clipPath id="clip2"><path d="M13,15 L570,15 L570,186 L13,186 Z M205,62 C200.5817261,62 197,65.5817184 197,70 L197,130 C197,134.4182739 200.5817261,138 205,138 L379,138 C383.4182739,138 387,134.4182739 387,130 L387,70 C387,65.5817184 383.4182739,62 379,62 Z" /></clipPath>
<path d="M379.3999939,138 C390.6444397,152.6666718 407.5111084,160 430,160" style="fill:none;stroke:rgb(85,142,213)" clip-path="url(#clip2)" />
<clipPath id="clip3"><path d="M13,15 L570,15 L570,186 L13,186 Z M205,62 C200.5817261,62 197,65.5817184 197,70 L197,130 C197,134.4182739 200.5817261,138 205,138 L379,138 C383.4182739,138 387,134.4182739 387,130 L387,70 C387,65.5817184 383.4182739,62 379,62 Z" /></clipPath>
<path d="M203.9666748,138 C192.6407471,152.6666718 175.6518555,160 153,160" style="fill:none;stroke:rgb(85,142,213)" clip-path="url(#clip3)" />
<clipPath id="clip4"><path d="M13,15 L570,15 L570,186 L13,186 Z M205,62 C200.5817261,62 197,65.5817184 197,70 L197,130 C197,134.4182739 200.5817261,138 205,138 L379,138 C383.4182739,138 387,134.4182739 387,130 L387,70 C387,65.5817184 383.4182739,62 379,62 Z" /></clipPath>
<path d="M203.9666748,62 C192.6407471,47.3333321 175.6518555,40 153,40" style="fill:none;stroke:rgb(85,142,213)" clip-path="url(#clip4)" />
<clipPath id="clip5"><path d="M193,58 L392,58 L392,143 L193,143 L193,58 Z" /></clipPath>
<path d="M205,62 C200.5817261,62 197,65.5817184 197,70 L197,130 C197,134.4182739 200.5817261,138 205,138 L379,138 C383.4182739,138 387,134.4182739 387,130 L387,70 C387,65.5817184 383.4182739,62 379,62 Z" style="fill:rgb(220,230,242);stroke:none" clip-path="url(#clip5)" />
<clipPath id="clip6"><path d="M193,58 L392,58 L392,143 L193,143 L193,58 Z" /></clipPath>
<path d="M205,62 C200.5817261,62 197,65.5817184 197,70 L197,130 C197,134.4182739 200.5817261,138 205,138 L379,138 C383.4182739,138 387,134.4182739 387,130 L387,70 C387,65.5817184 383.4182739,62 379,62 Z" style="fill:none;stroke:rgb(85,142,213);stroke-width:5" clip-path="url(#clip6)" />
<clipPath id="clip7"><path d="M229,78 L356,78 L356,123 L229,123 L229,78 Z" /></clipPath>
<path d="M243.2006836,86.0712891 L247.6538086,86.0712891 L247.6538086,91.2568359 L258.581543,91.2568359 L258.581543,107.6923828 L254.2456055,107.6923828 L254.2456055,105.6708984 L247.6538086,105.6708984 L247.6538086,115.1044922 L243.2006836,115.1044922 L243.2006836,105.6708984 L236.6088867,105.6708984 L236.6088867,107.7802734 L232.2729492,107.7802734 L232.2729492,91.2568359 L243.2006836,91.2568359 Z M254.2456055,95.2998047 L247.6538086,95.2998047 L247.6538086,101.6279297 L254.2456055,101.6279297 Z M236.6088867,101.6279297 L243.2006836,101.6279297 L243.2006836,95.2998047 L236.6088867,95.2998047 Z M276.0571289,85.9833984 C277.7563477,88.1318359 279.5825195,90.6708984 281.5356445,93.6005859 L277.6391602,96.0029297 C275.9790039,93.0146484 274.3286133,90.3681641 272.6879883,88.0634766 Z M281.5063477,104.5283203 C283.2641602,105.2509766 284.7387695,105.8076172 285.9301758,106.1982422 C285.793457,107.1259766 285.5419922,108.3686523 285.1757813,109.9262695 C284.8095703,111.4838867 284.3774414,112.4921875 283.8793945,112.9511719 C283.3813477,113.4101563 282.7587891,113.7519531 282.0117188,113.9765625 C281.2646484,114.2011719 280.3637695,114.3134766 279.309082,114.3134766 L274.5043945,114.3134766 C271.2231445,114.3134766 269.5825195,112.6533203 269.5825195,109.3330078 L269.5825195,92.4580078 L273.918457,92.4580078 L273.918457,107.9853516 C273.918457,109.6650391 274.7875977,110.5048828 276.5258789,110.5048828 L278.0200195,110.5048828 C278.8989258,110.5048828 279.5825195,110.355957 280.0708008,110.0581055 C280.559082,109.7602539 280.8618164,109.3256836 280.9790039,108.7543945 C281.0961914,108.1831055 281.2719727,106.7744141 281.5063477,104.5283203 Z M264.9536133,94.4794922 L268.9672852,95.3876953 C268.1274414,100.0361328 267.0336914,104.3427734 265.6860352,108.3076172 L261.7895508,106.8720703 C262.902832,103.3173828 263.9575195,99.1865234 264.9536133,94.4794922 Z M286.8969727,94.9482422 C288.4594727,98.1513672 289.8266602,101.3642578 290.9985352,104.5869141 L286.9555664,106.2568359 C285.8618164,103.0732422 284.543457,99.8310547 283.0004883,96.5302734 Z M292.8881836,109.9775391 L305.0170898,109.9775391 L305.0170898,104.4990234 L295.9936523,104.4990234 L295.9936523,100.6904297 L305.0170898,100.6904297 L305.0170898,95.3876953 L294.5874023,95.3876953 L294.5874023,91.5205078 L305.9399414,91.5205078 C305.2856445,90.2314453 304.5483398,88.9619141 303.7280273,87.7119141 L307.7416992,85.8955078 C308.6206055,87.1845703 309.4995117,88.6201172 310.378418,90.2021484 L307.5512695,91.5205078 L320.0170898,91.5205078 L320.0170898,95.3876953 L309.440918,95.3876953 L309.440918,100.6904297 L318.6694336,100.6904297 L318.6694336,104.4990234 L309.440918,104.4990234 L309.440918,109.9775391 L321.5991211,109.9775391 L321.5991211,113.9033203 L292.8881836,113.9033203 Z M328.293457,86.2177734 L332.0727539,87.1845703 C331.418457,89.6845703 330.7055664,92.0136719 329.934082,94.171875 L329.934082,106.0810547 C333.059082,102.8193359 335.378418,99.0009766 336.8920898,94.6259766 L331.6040039,94.6259766 L331.6040039,90.9638672 L339.2504883,90.9638672 L339.2504883,86.2177734 L343.1176758,86.2177734 L343.1176758,90.9638672 L351.5551758,90.9638672 L351.5551758,94.6259766 L345.2416992,94.6259766 C346.7260742,98.7763672 349.2211914,102.4482422 352.7270508,105.6416016 C351.887207,106.9111328 351.0375977,108.2978516 350.1782227,109.8017578 C349.3969727,108.9912109 348.6645508,108.0927734 347.980957,107.1064453 L347.980957,110.1240234 L343.1176758,110.1240234 L343.1176758,115.0458984 L339.2504883,115.0458984 L339.2504883,110.1240234 L334.5336914,110.1240234 L334.5336914,106.9892578 C333.7817383,108.1123047 332.9614258,109.1865234 332.0727539,110.2119141 C331.496582,109.2744141 330.7836914,108.1660156 329.934082,106.8867188 L329.934082,114.9873047 L326.418457,114.9873047 L326.418457,102.0966797 C325.793457,103.2197266 325.1489258,104.2646484 324.4848633,105.2314453 C324.2504883,103.4541016 323.9379883,101.6083984 323.5473633,99.6943359 C325.090332,96.8037109 326.6723633,92.3115234 328.293457,86.2177734 Z M334.8999023,106.4326172 L339.2504883,106.4326172 L339.2504883,96.28125 C338.3129883,100.0019531 336.862793,103.3857422 334.8999023,106.4326172 Z M343.1176758,96.4423828 L343.1176758,106.4326172 L347.5268555,106.4326172 C345.7495117,103.7177734 344.2797852,100.3876953 343.1176758,96.4423828 Z" style="fill:rgb(55,96,146);stroke:none" clip-path="url(#clip7)" />
<clipPath id="clip8"><path d="M428,14 L570,14 L570,67 L428,67 L428,14 Z" /></clipPath>
<path d="M435,16 C432.2385864,16 430,18.2385712 430,21 L430,59 C430,61.761425 432.2385864,64 435,64 L562,64 C564.7614136,64 567,61.761425 567,59 L567,21 C567,18.2385712 564.7614136,16 562,16 Z" style="fill:rgb(220,230,242);stroke:none" clip-path="url(#clip8)" />
<clipPath id="clip9"><path d="M428,14 L570,14 L570,67 L428,67 L428,14 Z" /></clipPath>
<path d="M435,16 C432.2385864,16 430,18.2385712 430,21 L430,59 C430,61.761425 432.2385864,64 435,64 L562,64 C564.7614136,64 567,61.761425 567,59 L567,21 C567,18.2385712 564.7614136,16 562,16 Z" style="fill:none;stroke:rgb(85,142,213);stroke-width:2" clip-path="url(#clip9)" />
<clipPath id="clip10"><path d="M442,23 L556,23 L556,58 L442,58 L442,23 Z" /></clipPath>
<path d="M448.7421875,39.3935547 L463.0292969,39.3935547 C462.9576721,41.8284492 462.8502502,44.2060547 462.7070313,46.5263672 C462.5351563,49.2047501 461.2675781,50.5367813 458.9042969,50.5224609 C457.7441406,50.5367813 456.5195313,50.5009727 455.2304688,50.4150391 C455.1445313,49.8134766 455.0442505,49.2047501 454.9296875,48.5888672 C456.0325317,48.746418 457.2643127,48.8323555 458.625,48.8466797 C460.0572815,48.8753242 460.8450317,48.0374336 460.9882813,46.3330078 C461.1028442,44.7861328 461.1887817,43.0029297 461.2460938,40.9833984 L454.6396484,40.9833984 C454.4677734,43.3753242 453.9700317,45.3017578 453.1464844,46.7626953 C452.0579224,48.6819649 450.2317505,50.1643867 447.6679688,51.2099609 C447.2955627,50.7229805 446.8873596,50.2431602 446.4433594,49.7705078 C448.8209534,48.8824844 450.5325317,47.5934219 451.578125,45.9033203 C452.3300781,44.621418 452.7633362,42.9814453 452.8779297,40.9833984 L448.7421875,40.9833984 Z M457.6367188,30.4560547 L459.1835938,29.7900391 C460.7590942,33.6285782 463.5234375,36.5003242 467.4765625,38.4052734 C466.8320313,39.0784492 466.3665161,39.6227188 466.0800781,40.0380859 C462.1412659,37.7607422 459.3268127,34.5667267 457.6367188,30.4560547 Z M445.8203125,38.6845703 C448.770813,36.5934219 451.2916565,33.7431641 453.3828125,30.1337891 L454.9082031,30.9716797 C452.7311096,34.7815704 450.1171875,37.8395157 447.0664063,40.1455078 C446.765625,39.7014961 446.3502502,39.2145157 445.8203125,38.6845703 Z M468.8623047,32.9482422 L478.6162109,32.9482422 L478.6162109,29.8544922 L480.3779297,29.8544922 L480.3779297,32.9482422 L489.6806641,32.9482422 L489.6806641,34.5166016 L480.3779297,34.5166016 L480.3779297,37.6962891 L486.4365234,37.6962891 L486.4365234,39.1787109 C485.1474609,42.0289688 483.3212891,44.4101563 480.9580078,46.3222656 C483.2998047,47.5898438 486.3076172,48.4886055 489.9814453,49.0185547 C489.4658203,49.7346992 489.0576172,50.3577461 488.7568359,50.8876953 C484.6676331,50.0784492 481.5273438,48.9361954 479.3359375,47.4609375 C476.9941406,48.9075508 473.7965393,50.1572266 469.7431641,51.2099609 C469.4566956,50.5511055 469.1416016,49.9853516 468.7978516,49.5126953 C472.7008362,48.6389961 475.7408752,47.5898438 477.9179688,46.3652344 C475.8411255,44.5820313 474.2333984,42.215168 473.0947266,39.2646484 L470.9677734,39.2646484 L470.9677734,37.6962891 L478.6162109,37.6962891 L478.6162109,34.5166016 L468.8623047,34.5166016 Z M484.3525391,39.2646484 L474.9101563,39.2646484 C475.955719,41.8499336 477.4667969,43.8837891 479.4433594,45.3662109 C481.6633911,43.6832657 483.2998047,41.6494141 484.3525391,39.2646484 Z M491.4746094,48.1591797 L501.0351563,48.1591797 L501.0351563,41.9716797 L493.171875,41.9716797 L493.171875,40.3388672 L501.0351563,40.3388672 L501.0351563,35.4404297 L492.3339844,35.4404297 L492.3339844,33.8076172 L511.4980469,33.8076172 L511.4980469,35.4404297 L502.8828125,35.4404297 L502.8828125,40.3388672 L510.7460938,40.3388672 L510.7460938,41.9716797 L502.8828125,41.9716797 L502.8828125,48.1591797 L512.4433594,48.1591797 L512.4433594,49.7490234 L491.4746094,49.7490234 Z M500.21875,30.6279297 L501.8085938,29.8115234 C502.6822815,31.1149063 503.3125,32.1246719 503.6992188,32.8408203 L502.0019531,33.7431641 C501.2285156,32.3108673 500.6340942,31.2724609 500.21875,30.6279297 Z M513.9150391,49.1904297 C514.9605713,47.7724609 515.5263672,45.5810547 515.6123047,42.6162109 L517.0947266,42.6162109 C517.0517578,43.5042305 516.9801025,44.3492813 516.8798828,45.1513672 C517.40979,46.1110001 518.0830078,46.8844376 518.8994141,47.4716797 L518.8994141,41.6064453 L514.0869141,41.6064453 L514.0869141,40.2099609 L524.0126953,40.2099609 L524.0126953,41.6064453 L520.3173828,41.6064453 L520.3173828,43.8837891 L523.7763672,43.8837891 L523.7763672,45.2802734 L520.3173828,45.2802734 L520.3173828,48.2451172 C521.2769775,48.6318359 522.3726807,48.8395157 523.6044922,48.8681641 C526.1253052,49.0257149 530.0139771,48.9899063 535.2705078,48.7607422 C535.112915,49.2333984 534.9124146,49.7991524 534.6689453,50.4580078 C529.5413208,50.5869141 525.8531494,50.5582657 523.6044922,50.3720703 C520.4104614,50.2861328 518.0543213,49.1617813 516.5361328,46.9990234 C516.1636963,48.6175117 515.6051025,50.0211563 514.8603516,51.2099609 C514.5738525,50.5367813 514.2587891,49.8636055 513.9150391,49.1904297 Z M515.4189453,30.8642578 L522.9814453,30.8642578 L522.9814453,39.1357422 L521.5634766,39.1357422 L521.5634766,38.4697266 L516.8369141,38.4697266 L516.8369141,39.1357422 L515.4189453,39.1357422 Z M524.8291016,34.8603516 L527.9443359,34.8603516 C528.0875244,34.0152969 528.2092896,33.1988907 528.3095703,32.4111328 L524.0341797,32.4111328 L524.0341797,31.0146484 L534.8193359,31.0146484 L534.8193359,32.4111328 L529.8994141,32.4111328 C529.7705078,33.2561798 529.6272583,34.0725861 529.4697266,34.8603516 L533.6806641,34.8603516 L533.6806641,43.9697266 L532.2626953,43.9697266 L532.2626953,36.2568359 L526.2470703,36.2568359 L526.2470703,43.9697266 L524.8291016,43.9697266 Z M528.5458984,37.1806641 L529.9638672,37.1806641 L529.9638672,39.8662109 C529.9638672,41.2698555 529.8206177,42.4729805 529.5341797,43.4755859 C531.7398682,45.0654297 533.3655396,46.3115234 534.4111328,47.2138672 L533.2509766,48.3525391 C532.1051025,47.2783203 530.6943359,46.1110001 529.0185547,44.8505859 C528.9326172,45.0081367 528.8466797,45.1585274 528.7607422,45.3017578 C527.9013672,46.6767578 526.4404297,47.7652969 524.3779297,48.5673828 C524.0484619,48.1520157 523.6617432,47.7294922 523.2177734,47.2998047 C525.2229614,46.6409492 526.6123047,45.7600899 527.3857422,44.6572266 C528.1591797,43.5686836 528.5458984,41.9501953 528.5458984,39.8017578 Z M516.8369141,37.1806641 L521.5634766,37.1806641 L521.5634766,35.2900391 L516.8369141,35.2900391 Z M521.5634766,32.1533203 L516.8369141,32.1533203 L516.8369141,34.0224609 L521.5634766,34.0224609 Z M549.0957031,48.1914063 L549.0957031,33.9580078 C548.7662354,34.2874298 548.2094727,34.65625 547.425293,35.0644531 C546.6411133,35.4726563 545.9160156,35.7591095 545.25,35.9238281 L545.25,33.8613281 C546.1308594,33.617836 547.0725708,33.2293243 548.0751953,32.6958008 C549.0777588,32.1622696 549.8476563,31.6591797 550.3847656,31.1865234 L551.1796875,31.1865234 L551.1796875,48.1914063 Z" style="fill:rgb(23,55,94);stroke:none" clip-path="url(#clip10)" />
<clipPath id="clip11"><path d="M428,134 L571,134 L571,187 L428,187 L428,134 Z" /></clipPath>
<path d="M435,136 C432.2385864,136 430,138.2385712 430,141 L430,179 C430,181.7614288 432.2385864,184 435,184 L563,184 C565.7614136,184 568,181.7614288 568,179 L568,141 C568,138.2385712 565.7614136,136 563,136 Z" style="fill:rgb(220,230,242);stroke:none" clip-path="url(#clip11)" />
<clipPath id="clip12"><path d="M428,134 L571,134 L571,187 L428,187 L428,134 Z" /></clipPath>
<path d="M435,136 C432.2385864,136 430,138.2385712 430,141 L430,179 C430,181.7614288 432.2385864,184 435,184 L563,184 C565.7614136,184 568,181.7614288 568,179 L568,141 C568,138.2385712 565.7614136,136 563,136 Z" style="fill:none;stroke:rgb(85,142,213);stroke-width:2" clip-path="url(#clip12)" />
<clipPath id="clip13"><path d="M442,143 L557,143 L557,178 L442,178 L442,143 Z" /></clipPath>
<path d="M447.4750977,159.3935547 L461.762207,159.3935547 C461.6905823,161.8284454 461.5831604,164.2060547 461.4399414,166.5263672 C461.2680664,169.2047424 460.0004883,170.5367737 457.637207,170.5224609 C456.4770508,170.5367737 455.2524414,170.5009766 453.9633789,170.4150391 C453.8774414,169.8134766 453.7771606,169.2047424 453.6625977,168.5888672 C454.7654419,168.7464142 455.9972229,168.8323517 457.3579102,168.8466797 C458.7901917,168.8753204 459.5779419,168.0374298 459.7211914,166.3330078 C459.8357544,164.7861328 459.9216919,163.0029297 459.9790039,160.9833984 L453.3725586,160.9833984 C453.2006836,163.3753204 452.7029419,165.3017578 451.8793945,166.7626953 C450.7908325,168.6819611 448.9646606,170.1643829 446.4008789,171.2099609 C446.0284729,170.7229767 445.6202698,170.2431641 445.1762695,169.7705078 C447.5538635,168.8824768 449.2654419,167.5934143 450.3110352,165.9033203 C451.0629883,164.6214142 451.4962463,162.9814453 451.6108398,160.9833984 L447.4750977,160.9833984 Z M456.3696289,150.4560547 L457.9165039,149.7900391 C459.4920044,153.6285706 462.2563477,156.5003204 466.2094727,158.4052734 C465.5649414,159.0784454 465.0994263,159.6227112 464.8129883,160.0380859 C460.874176,157.7607422 458.0597229,154.5667267 456.3696289,150.4560547 Z M444.5532227,158.6845703 C447.5037231,156.5934143 450.0245667,153.7431641 452.1157227,150.1337891 L453.6411133,150.9716797 C451.4640198,154.7815704 448.8500977,157.8395081 445.7993164,160.1455078 C445.4985352,159.7014923 445.0831604,159.2145081 444.5532227,158.6845703 Z M467.5952148,152.9482422 L477.3491211,152.9482422 L477.3491211,149.8544922 L479.1108398,149.8544922 L479.1108398,152.9482422 L488.4135742,152.9482422 L488.4135742,154.5166016 L479.1108398,154.5166016 L479.1108398,157.6962891 L485.1694336,157.6962891 L485.1694336,159.1787109 C483.8803711,162.0289612 482.0541992,164.4101563 479.690918,166.3222656 C482.0327148,167.5898438 485.0405273,168.4886017 488.7143555,169.0185547 C488.1987305,169.7346954 487.7905273,170.3577423 487.4897461,170.8876953 C483.4005432,170.0784454 480.2602539,168.9361877 478.0688477,167.4609375 C475.7270508,168.907547 472.5294495,170.1572266 468.4760742,171.2099609 C468.1896057,170.5511017 467.8745117,169.9853516 467.5307617,169.5126953 C471.4337463,168.6389923 474.4737854,167.5898438 476.6508789,166.3652344 C474.5740356,164.5820313 472.9663086,162.2151642 471.8276367,159.2646484 L469.7006836,159.2646484 L469.7006836,157.6962891 L477.3491211,157.6962891 L477.3491211,154.5166016 L467.5952148,154.5166016 Z M483.0854492,159.2646484 L473.6430664,159.2646484 C474.6886292,161.8499298 476.199707,163.8837891 478.1762695,165.3662109 C480.3963013,163.6832581 482.0327148,161.6494141 483.0854492,159.2646484 Z M490.2075195,168.1591797 L499.7680664,168.1591797 L499.7680664,161.9716797 L491.9047852,161.9716797 L491.9047852,160.3388672 L499.7680664,160.3388672 L499.7680664,155.4404297 L491.0668945,155.4404297 L491.0668945,153.8076172 L510.230957,153.8076172 L510.230957,155.4404297 L501.6157227,155.4404297 L501.6157227,160.3388672 L509.4790039,160.3388672 L509.4790039,161.9716797 L501.6157227,161.9716797 L501.6157227,168.1591797 L511.1762695,168.1591797 L511.1762695,169.7490234 L490.2075195,169.7490234 Z M498.9516602,150.6279297 L500.5415039,149.8115234 C501.4151917,151.1148987 502.0454102,152.1246643 502.4321289,152.8408203 L500.7348633,153.7431641 C499.9614258,152.3108673 499.3670044,151.2724609 498.9516602,150.6279297 Z M512.6479492,169.1904297 C513.6934814,167.7724609 514.2592773,165.5810547 514.3452148,162.6162109 L515.8276367,162.6162109 C515.784668,163.5042267 515.7130127,164.3492737 515.612793,165.1513672 C516.1427002,166.1109924 516.815918,166.8844299 517.6323242,167.4716797 L517.6323242,161.6064453 L512.8198242,161.6064453 L512.8198242,160.2099609 L522.7456055,160.2099609 L522.7456055,161.6064453 L519.050293,161.6064453 L519.050293,163.8837891 L522.5092773,163.8837891 L522.5092773,165.2802734 L519.050293,165.2802734 L519.050293,168.2451172 C520.0098877,168.6318359 521.1055908,168.8395081 522.3374023,168.8681641 C524.8582153,169.0257111 528.7468872,168.9898987 534.003418,168.7607422 C533.8458252,169.2333984 533.6453247,169.7991486 533.4018555,170.4580078 C528.274231,170.5869141 524.5860596,170.5582581 522.3374023,170.3720703 C519.1433716,170.2861328 516.7872314,169.1617737 515.269043,166.9990234 C514.8966064,168.6175079 514.3380127,170.0211487 513.5932617,171.2099609 C513.3067627,170.5367737 512.9916992,169.8636017 512.6479492,169.1904297 Z M514.1518555,150.8642578 L521.7143555,150.8642578 L521.7143555,159.1357422 L520.2963867,159.1357422 L520.2963867,158.4697266 L515.5698242,158.4697266 L515.5698242,159.1357422 L514.1518555,159.1357422 Z M523.5620117,154.8603516 L526.6772461,154.8603516 C526.8204346,154.0152893 526.9421997,153.1988831 527.0424805,152.4111328 L522.7670898,152.4111328 L522.7670898,151.0146484 L533.5522461,151.0146484 L533.5522461,152.4111328 L528.6323242,152.4111328 C528.503418,153.2561798 528.3601685,154.0725861 528.2026367,154.8603516 L532.4135742,154.8603516 L532.4135742,163.9697266 L530.9956055,163.9697266 L530.9956055,156.2568359 L524.9799805,156.2568359 L524.9799805,163.9697266 L523.5620117,163.9697266 Z M527.2788086,157.1806641 L528.6967773,157.1806641 L528.6967773,159.8662109 C528.6967773,161.2698517 528.5535278,162.4729767 528.2670898,163.4755859 C530.4727783,165.0654297 532.0984497,166.3115234 533.144043,167.2138672 L531.9838867,168.3525391 C530.8380127,167.2783203 529.4272461,166.1109924 527.7514648,164.8505859 C527.6655273,165.0081329 527.5795898,165.1585236 527.4936523,165.3017578 C526.6342773,166.6767578 525.1733398,167.7652893 523.1108398,168.5673828 C522.7813721,168.1520081 522.3946533,167.7294922 521.9506836,167.2998047 C523.9558716,166.6409454 525.3452148,165.7600861 526.1186523,164.6572266 C526.8920898,163.5686798 527.2788086,161.9501953 527.2788086,159.8017578 Z M515.5698242,157.1806641 L520.2963867,157.1806641 L520.2963867,155.2900391 L515.5698242,155.2900391 Z M520.2963867,152.1533203 L515.5698242,152.1533203 L515.5698242,154.0224609 L520.2963867,154.0224609 Z M550.8686523,155.9130859 C550.8686523,155.0178986 550.5857544,154.3142853 550.0200195,153.8022461 C549.4542236,153.2901917 548.6843872,153.0341797 547.7104492,153.0341797 C547.0229492,153.0341797 546.3282471,153.2096252 545.6264648,153.5605469 C544.9246216,153.9114532 544.2693481,154.4127502 543.6606445,155.0644531 L543.6606445,153.0234375 C544.204895,152.4576721 544.8225708,152.0244141 545.5136719,151.7236328 C546.2047119,151.4228516 547.0157471,151.2724609 547.9467773,151.2724609 C549.4506836,151.2724609 550.6609497,151.675293 551.5776367,152.480957 C552.4942627,153.2866211 552.9526367,154.3769531 552.9526367,155.7519531 C552.9526367,156.9765625 552.6715088,158.0364532 552.109375,158.9316406 C551.5471802,159.8268127 550.5857544,160.7434845 549.2250977,161.6816406 C547.8357544,162.6412659 546.9065552,163.3287659 546.4375,163.7441406 C545.9683838,164.1595001 545.6407471,164.5569611 545.4545898,164.9365234 C545.2683716,165.3160706 545.175293,165.7779846 545.175293,166.3222656 L553.4467773,166.3222656 L553.4467773,168.1914063 L542.9838867,168.1914063 L542.9838867,167.3642578 C542.9838867,166.4046173 543.114563,165.5899963 543.3759766,164.9204102 C543.6373291,164.2508087 544.0688477,163.5991211 544.6704102,162.965332 C545.2719727,162.331543 546.210083,161.5706329 547.4848633,160.6826172 C548.788208,159.7659454 549.6780396,158.9620667 550.1542969,158.2709961 C550.6304932,157.5799103 550.8686523,156.7939453 550.8686523,155.9130859 Z" style="fill:rgb(23,55,94);stroke:none" clip-path="url(#clip13)" />
<clipPath id="clip14"><path d="M12,134 L156,134 L156,187 L12,187 L12,134 Z" /></clipPath>
<path d="M19,136 C16.2385864,136 14,138.2385712 14,141 L14,179 C14,181.7614288 16.2385864,184 19,184 L148,184 C150.7614288,184 153,181.7614288 153,179 L153,141 C153,138.2385712 150.7614288,136 148,136 Z" style="fill:rgb(220,230,242);stroke:none" clip-path="url(#clip14)" />
<clipPath id="clip15"><path d="M12,134 L156,134 L156,187 L12,187 L12,134 Z" /></clipPath>
<path d="M19,136 C16.2385864,136 14,138.2385712 14,141 L14,179 C14,181.7614288 16.2385864,184 19,184 L148,184 C150.7614288,184 153,181.7614288 153,179 L153,141 C153,138.2385712 150.7614288,136 148,136 Z" style="fill:none;stroke:rgb(85,142,213);stroke-width:2" clip-path="url(#clip15)" />
<clipPath id="clip16"><path d="M26,143 L142,143 L142,178 L26,178 L26,143 Z" /></clipPath>
<path d="M31.6045227,159.3935547 L45.8916321,159.3935547 C45.8200073,161.8284454 45.7125854,164.2060547 45.5693665,166.5263672 C45.3974915,169.2047424 44.1299133,170.5367737 41.7666321,170.5224609 C40.6064758,170.5367737 39.3818665,170.5009766 38.092804,170.4150391 C38.0068665,169.8134766 37.906601,169.2047424 37.7920227,168.5888672 C38.8948822,168.7464142 40.1266479,168.8323517 41.4873352,168.8466797 C42.9196167,168.8753204 43.7073822,168.0374298 43.8506165,166.3330078 C43.9651947,164.7861328 44.0511322,163.0029297 44.108429,160.9833984 L37.5019836,160.9833984 C37.3300934,163.3753204 36.8323822,165.3017578 36.0088196,166.7626953 C34.9202576,168.6819611 33.0940857,170.1643829 30.530304,171.2099609 C30.1578979,170.7229767 29.7496948,170.2431641 29.3056946,169.7705078 C31.6832886,168.8824768 33.3948669,167.5934143 34.4404602,165.9033203 C35.1924133,164.6214142 35.6256714,162.9814453 35.7402649,160.9833984 L31.6045227,160.9833984 Z M40.499054,150.4560547 L42.045929,149.7900391 C43.6214447,153.6285706 46.3857727,156.5003204 50.3388977,158.4052734 C49.6943665,159.0784454 49.2288666,159.6227112 48.9424133,160.0380859 C45.0036011,157.7607422 42.1891479,154.5667267 40.499054,150.4560547 Z M28.6826477,158.6845703 C31.6331482,156.5934143 34.1539917,153.7431641 36.2451477,150.1337891 L37.7705383,150.9716797 C35.5934448,154.7815704 32.9794922,157.8395081 29.9287415,160.1455078 C29.6279602,159.7014923 29.2125854,159.2145081 28.6826477,158.6845703 Z M51.7246399,152.9482422 L61.4785461,152.9482422 L61.4785461,149.8544922 L63.2402649,149.8544922 L63.2402649,152.9482422 L72.5429993,152.9482422 L72.5429993,154.5166016 L63.2402649,154.5166016 L63.2402649,157.6962891 L69.2988586,157.6962891 L69.2988586,159.1787109 C68.0097961,162.0289612 66.1836243,164.4101563 63.820343,166.3222656 C66.1621399,167.5898438 69.1699524,168.4886017 72.8437805,169.0185547 C72.3281555,169.7346954 71.9199524,170.3577423 71.6191711,170.8876953 C67.5299683,170.0784454 64.389679,168.9361877 62.1982727,167.4609375 C59.8564758,168.907547 56.6588745,170.1572266 52.6054993,171.2099609 C52.3190308,170.5511017 52.0039368,169.9853516 51.6601868,169.5126953 C55.5631714,168.6389923 58.6032104,167.5898438 60.780304,166.3652344 C58.703476,164.5820313 57.0957336,162.2151642 55.9570618,159.2646484 L53.8301086,159.2646484 L53.8301086,157.6962891 L61.4785461,157.6962891 L61.4785461,154.5166016 L51.7246399,154.5166016 Z M67.2148743,159.2646484 L57.7724915,159.2646484 C58.8180542,161.8499298 60.3291321,163.8837891 62.3056946,165.3662109 C64.5257416,163.6832581 66.1621399,161.6494141 67.2148743,159.2646484 Z M74.3369446,168.1591797 L83.8974915,168.1591797 L83.8974915,161.9716797 L76.0342102,161.9716797 L76.0342102,160.3388672 L83.8974915,160.3388672 L83.8974915,155.4404297 L75.1963196,155.4404297 L75.1963196,153.8076172 L94.3603821,153.8076172 L94.3603821,155.4404297 L85.7451477,155.4404297 L85.7451477,160.3388672 L93.608429,160.3388672 L93.608429,161.9716797 L85.7451477,161.9716797 L85.7451477,168.1591797 L95.3056946,168.1591797 L95.3056946,169.7490234 L74.3369446,169.7490234 Z M83.0810852,150.6279297 L84.670929,149.8115234 C85.5446167,151.1148987 86.1748352,152.1246643 86.561554,152.8408203 L84.8642883,153.7431641 C84.0908508,152.3108673 83.4964447,151.2724609 83.0810852,150.6279297 Z M96.7773743,169.1904297 C97.822937,167.7724609 98.3887024,165.5810547 98.4746399,162.6162109 L99.9570618,162.6162109 C99.914093,163.5042267 99.8424683,164.3492737 99.742218,165.1513672 C100.2721558,166.1109924 100.945343,166.8844299 101.7617493,167.4716797 L101.7617493,161.6064453 L96.9492493,161.6064453 L96.9492493,160.2099609 L106.8750305,160.2099609 L106.8750305,161.6064453 L103.179718,161.6064453 L103.179718,163.8837891 L106.6387024,163.8837891 L106.6387024,165.2802734 L103.179718,165.2802734 L103.179718,168.2451172 C104.1393433,168.6318359 105.2350464,168.8395081 106.4668274,168.8681641 C108.9876556,169.0257111 112.8763275,168.9898987 118.132843,168.7607422 C117.9752808,169.2333984 117.774765,169.7991486 117.5312805,170.4580078 C112.4036713,170.5869141 108.7155151,170.5582581 106.4668274,170.3720703 C103.2728119,170.2861328 100.916687,169.1617737 99.398468,166.9990234 C99.026062,168.6175079 98.4674683,170.0211487 97.7226868,171.2099609 C97.4362183,170.5367737 97.1211243,169.8636017 96.7773743,169.1904297 Z M98.2812805,150.8642578 L105.8437805,150.8642578 L105.8437805,159.1357422 L104.4258118,159.1357422 L104.4258118,158.4697266 L99.6992493,158.4697266 L99.6992493,159.1357422 L98.2812805,159.1357422 Z M107.6914368,154.8603516 L110.8066711,154.8603516 C110.9498901,154.0152893 111.07164,153.1988831 111.1719055,152.4111328 L106.8965149,152.4111328 L106.8965149,151.0146484 L117.6816711,151.0146484 L117.6816711,152.4111328 L112.7617493,152.4111328 C112.632843,153.2561798 112.4896088,154.0725861 112.3320618,154.8603516 L116.5429993,154.8603516 L116.5429993,163.9697266 L115.1250305,163.9697266 L115.1250305,156.2568359 L109.1094055,156.2568359 L109.1094055,163.9697266 L107.6914368,163.9697266 Z M111.4082336,157.1806641 L112.8262024,157.1806641 L112.8262024,159.8662109 C112.8262024,161.2698517 112.6829681,162.4729767 112.3965149,163.4755859 C114.6022339,165.0654297 116.22789,166.3115234 117.273468,167.2138672 L116.1133118,168.3525391 C114.9674683,167.2783203 113.5566559,166.1109924 111.8808899,164.8505859 C111.7949524,165.0081329 111.7090149,165.1585236 111.6230774,165.3017578 C110.7637024,166.6767578 109.3027649,167.7652893 107.2402649,168.5673828 C106.9108276,168.1520081 106.5241089,167.7294922 106.0801086,167.2998047 C108.0853119,166.6409454 109.4746399,165.7600861 110.2480774,164.6572266 C111.0215149,163.5686798 111.4082336,161.9501953 111.4082336,159.8017578 Z M99.6992493,157.1806641 L104.4258118,157.1806641 L104.4258118,155.2900391 L99.6992493,155.2900391 Z M104.4258118,152.1533203 L99.6992493,152.1533203 L99.6992493,154.0224609 L104.4258118,154.0224609 Z M135.8252258,151.5517578 L135.8252258,162.5410156 L138.3174133,162.5410156 L138.3174133,164.28125 L135.8252258,164.28125 L135.8252258,168.1914063 L133.7842102,168.1914063 L133.7842102,164.28125 L126.0176086,164.28125 L126.0176086,162.6376953 C127.399765,161.0836487 128.789093,159.2932892 130.1855774,157.2666016 C131.5820618,155.2398987 132.7350464,153.3349609 133.6445618,151.5517578 Z M128.3808899,162.5410156 L133.7842102,162.5410156 L133.7842102,154.6132813 C133.0394135,155.9524689 132.2409058,157.2504883 131.3887024,158.5073242 C130.5364838,159.7641602 129.5338745,161.1087189 128.3808899,162.5410156 Z" style="fill:rgb(23,55,94);stroke:none" clip-path="url(#clip16)" />
<clipPath id="clip17"><path d="M13,14 L156,14 L156,67 L13,67 L13,14 Z" /></clipPath>
<path d="M20,16 C17.2385864,16 15,18.2385712 15,21 L15,59 C15,61.761425 17.2385864,64 20,64 L148,64 C150.7614288,64 153,61.761425 153,59 L153,21 C153,18.2385712 150.7614288,16 148,16 Z" style="fill:rgb(220,230,242);stroke:none" clip-path="url(#clip17)" />
<clipPath id="clip18"><path d="M13,14 L156,14 L156,67 L13,67 L13,14 Z" /></clipPath>
<path d="M20,16 C17.2385864,16 15,18.2385712 15,21 L15,59 C15,61.761425 17.2385864,64 20,64 L148,64 C150.7614288,64 153,61.761425 153,59 L153,21 C153,18.2385712 150.7614288,16 148,16 Z" style="fill:none;stroke:rgb(85,142,213);stroke-width:2" clip-path="url(#clip18)" />
<clipPath id="clip19"><path d="M27,23 L142,23 L142,58 L27,58 L27,23 Z" /></clipPath>
<path d="M32.7114563,39.3935547 L46.9985657,39.3935547 C46.9269409,41.8284492 46.819519,44.2060547 46.6763,46.5263672 C46.504425,49.2047501 45.2368469,50.5367813 42.8735657,50.5224609 C41.7134094,50.5367813 40.4888,50.5009727 39.1997375,50.4150391 C39.1138,49.8134766 39.0135345,49.2047501 38.8989563,48.5888672 C40.0018158,48.746418 41.2335815,48.8323555 42.5942688,48.8466797 C44.0265503,48.8753242 44.8143158,48.0374336 44.95755,46.3330078 C45.0721283,44.7861328 45.1580658,43.0029297 45.2153625,40.9833984 L38.6089172,40.9833984 C38.437027,43.3753242 37.9393158,45.3017578 37.1157532,46.7626953 C36.0272064,48.6819649 34.2010193,50.1643867 31.6372375,51.2099609 C31.2648315,50.7229805 30.8566284,50.2431602 30.4126282,49.7705078 C32.7902222,48.8824844 34.5018005,47.5934219 35.5473938,45.9033203 C36.2993469,44.621418 36.732605,42.9814453 36.8471985,40.9833984 L32.7114563,40.9833984 Z M41.6059875,30.4560547 L43.1528625,29.7900391 C44.7283783,33.6285782 47.4927063,36.5003242 51.4458313,38.4052734 C50.8013,39.0784492 50.3358002,39.6227188 50.0493469,40.0380859 C46.1105347,37.7607422 43.2960815,34.5667267 41.6059875,30.4560547 Z M29.7895813,38.6845703 C32.7400818,36.5934219 35.2609253,33.7431641 37.3520813,30.1337891 L38.8774719,30.9716797 C36.7003784,34.7815704 34.0864258,37.8395157 31.035675,40.1455078 C30.7348938,39.7014961 30.319519,39.2145157 29.7895813,38.6845703 Z M52.8315735,32.9482422 L62.5854797,32.9482422 L62.5854797,29.8544922 L64.3471985,29.8544922 L64.3471985,32.9482422 L73.6499329,32.9482422 L73.6499329,34.5166016 L64.3471985,34.5166016 L64.3471985,37.6962891 L70.4057922,37.6962891 L70.4057922,39.1787109 C69.1167297,42.0289688 67.2905579,44.4101563 64.9272766,46.3222656 C67.2690735,47.5898438 70.276886,48.4886055 73.9507141,49.0185547 C73.4350891,49.7346992 73.026886,50.3577461 72.7261047,50.8876953 C68.6369019,50.0784492 65.4966125,48.9361954 63.3052063,47.4609375 C60.9634094,48.9075508 57.7658081,50.1572266 53.7124329,51.2099609 C53.4259644,50.5511055 53.1108704,49.9853516 52.7671204,49.5126953 C56.670105,48.6389961 59.710144,47.5898438 61.8872375,46.3652344 C59.8104095,44.5820313 58.2026672,42.215168 57.0639954,39.2646484 L54.9370422,39.2646484 L54.9370422,37.6962891 L62.5854797,37.6962891 L62.5854797,34.5166016 L52.8315735,34.5166016 Z M68.3218079,39.2646484 L58.879425,39.2646484 C59.9249878,41.8499336 61.4360657,43.8837891 63.4126282,45.3662109 C65.6326752,43.6832657 67.2690735,41.6494141 68.3218079,39.2646484 Z M75.4438782,48.1591797 L85.004425,48.1591797 L85.004425,41.9716797 L77.1411438,41.9716797 L77.1411438,40.3388672 L85.004425,40.3388672 L85.004425,35.4404297 L76.3032532,35.4404297 L76.3032532,33.8076172 L95.4673157,33.8076172 L95.4673157,35.4404297 L86.8520813,35.4404297 L86.8520813,40.3388672 L94.7153625,40.3388672 L94.7153625,41.9716797 L86.8520813,41.9716797 L86.8520813,48.1591797 L96.4126282,48.1591797 L96.4126282,49.7490234 L75.4438782,49.7490234 Z M84.1880188,30.6279297 L85.7778625,29.8115234 C86.6515503,31.1149063 87.2817688,32.1246719 87.6684875,32.8408203 L85.9712219,33.7431641 C85.1977844,32.3108673 84.6033783,31.2724609 84.1880188,30.6279297 Z M97.8843079,49.1904297 C98.9298706,47.7724609 99.495636,45.5810547 99.5815735,42.6162109 L101.0639954,42.6162109 C101.0210266,43.5042305 100.9494019,44.3492813 100.8491516,45.1513672 C101.3790894,46.1110001 102.0522766,46.8844376 102.8686829,47.4716797 L102.8686829,41.6064453 L98.0561829,41.6064453 L98.0561829,40.2099609 L107.9819641,40.2099609 L107.9819641,41.6064453 L104.2866516,41.6064453 L104.2866516,43.8837891 L107.745636,43.8837891 L107.745636,45.2802734 L104.2866516,45.2802734 L104.2866516,48.2451172 C105.2462769,48.6318359 106.34198,48.8395157 107.573761,48.8681641 C110.0945892,49.0257149 113.9832611,48.9899063 119.2397766,48.7607422 C119.0822144,49.2333984 118.8816986,49.7991524 118.6382141,50.4580078 C113.5106049,50.5869141 109.8224487,50.5582657 107.573761,50.3720703 C104.3797455,50.2861328 102.0236206,49.1617813 100.5054016,46.9990234 C100.1329956,48.6175117 99.5744019,50.0211563 98.8296204,51.2099609 C98.5431519,50.5367813 98.2280579,49.8636055 97.8843079,49.1904297 Z M99.3882141,30.8642578 L106.9507141,30.8642578 L106.9507141,39.1357422 L105.5327454,39.1357422 L105.5327454,38.4697266 L100.8061829,38.4697266 L100.8061829,39.1357422 L99.3882141,39.1357422 Z M108.7983704,34.8603516 L111.9136047,34.8603516 C112.0568237,34.0152969 112.1785736,33.1988907 112.2788391,32.4111328 L108.0034485,32.4111328 L108.0034485,31.0146484 L118.7886047,31.0146484 L118.7886047,32.4111328 L113.8686829,32.4111328 C113.7397766,33.2561798 113.5965424,34.0725861 113.4389954,34.8603516 L117.6499329,34.8603516 L117.6499329,43.9697266 L116.2319641,43.9697266 L116.2319641,36.2568359 L110.2163391,36.2568359 L110.2163391,43.9697266 L108.7983704,43.9697266 Z M112.5151672,37.1806641 L113.933136,37.1806641 L113.933136,39.8662109 C113.933136,41.2698555 113.7899017,42.4729805 113.5034485,43.4755859 C115.7091675,45.0654297 117.3348236,46.3115234 118.3804016,47.2138672 L117.2202454,48.3525391 C116.0744019,47.2783203 114.6635895,46.1110001 112.9878235,44.8505859 C112.901886,45.0081367 112.8159485,45.1585274 112.730011,45.3017578 C111.870636,46.6767578 110.4096985,47.7652969 108.3471985,48.5673828 C108.0177612,48.1520157 107.6310425,47.7294922 107.1870422,47.2998047 C109.1922455,46.6409492 110.5815735,45.7600899 111.355011,44.6572266 C112.1284485,43.5686836 112.5151672,41.9501953 112.5151672,39.8017578 Z M100.8061829,37.1806641 L105.5327454,37.1806641 L105.5327454,35.2900391 L100.8061829,35.2900391 Z M105.5327454,32.1533203 L100.8061829,32.1533203 L100.8061829,34.0224609 L105.5327454,34.0224609 Z M128.4780579,45.4091797 C129.6167297,46.2900391 130.9022064,46.7304688 132.3345032,46.7304688 C133.4803314,46.7304688 134.3880463,46.449379 135.0576477,45.887207 C135.7272339,45.3250313 136.062027,44.5712891 136.0620422,43.6259766 C136.062027,41.5205078 134.5545502,40.4677734 131.5395813,40.4677734 L130.1538391,40.4677734 L130.1538391,38.7275391 L131.4751282,38.7275391 C134.146347,38.7275391 135.4819489,37.7392578 135.4819641,35.7626953 C135.4819489,33.9365234 134.461441,33.0234375 132.4204407,33.0234375 C131.2531128,33.0234375 130.1538391,33.4173126 129.1225891,34.2050781 L129.1225891,32.2177734 C130.2111206,31.5875626 131.4822845,31.2724609 132.9360657,31.2724609 C134.3540344,31.2724609 135.4927063,31.6430664 136.3520813,32.3842773 C137.211441,33.1254883 137.6411285,34.0869141 137.6411438,35.2685547 C137.6411285,37.4456367 136.5311127,38.8457031 134.3110657,39.46875 L134.3110657,39.5117188 C135.5141907,39.640625 136.4648743,40.0649414 137.1631165,40.784668 C137.8613586,41.5043945 138.2104797,42.4013672 138.2104797,43.4755859 C138.2104797,44.9723282 137.6715698,46.1790352 136.5937805,47.0957031 C135.515976,48.0123672 134.0818939,48.4707031 132.2915344,48.4707031 C130.7160034,48.4707031 129.4448547,48.1770821 128.4780579,47.5898438 Z" style="fill:rgb(23,55,94);stroke:none" clip-path="url(#clip19)" />
</svg>
